<svg id="visual" viewBox="0 0 900 450" width="900" height="450" xmlns="http://www.w3.org/2000/svg" xmlns:xlink="http://www.w3.org/1999/xlink" version="1.1"><path d="M0 160L21.5 156.8C43 153.7 86 147.3 128.8 145.7C171.7 144 214.3 147 257.2 150.3C300 153.7 343 157.3 385.8 158C428.7 158.7 471.3 156.3 514.2 150.5C557 144.7 600 135.3 642.8 135.5C685.7 135.7 728.3 145.3 771.2 154C814 162.7 857 170.3 878.5 174.2L900 178L900 0L878.5 0C857 0 814 0 771.2 0C728.3 0 685.7 0 642.8 0C600 0 557 0 514.2 0C471.3 0 428.7 0 385.8 0C343 0 300 0 257.2 0C214.3 0 171.7 0 128.8 0C86 0 43 0 21.5 0L0 0Z" fill="#ffc9a7"></path><path d="M0 109L21.5 111.7C43 114.3 86 119.7 128.8 119.2C171.7 118.7 214.3 112.3 257.2 112.3C300 112.3 343 118.7 385.8 117.3C428.7 116 471.3 107 514.2 101.7C557 96.3 600 94.7 642.8 97.2C685.7 99.7 728.3 106.3 771.2 112C814 117.7 857 122.3 878.5 124.7L900 127L900 0L878.5 0C857 0 814 0 771.2 0C728.3 0 685.7 0 642.8 0C600 0 557 0 514.2 0C471.3 0 428.7 0 385.8 0C343 0 300 0 257.2 0C214.3 0 171.7 0 128.8 0C86 0 43 0 21.5 0L0 0Z" fill="#febe6b"></path><path d="M0 91L21.5 91.3C43 91.7 86 92.3 128.8 90.8C171.7 89.3 214.3 85.7 257.2 89C300 92.3 343 102.7 385.8 101.8C428.7 101 471.3 89 514.2 81.7C557 74.3 600 71.7 642.8 71.3C685.7 71 728.3 73 771.2 73.8C814 74.7 857 74.3 878.5 74.2L900 74L900 0L878.5 0C857 0 814 0 771.2 0C728.3 0 685.7 0 642.8 0C600 0 557 0 514.2 0C471.3 0 428.7 0 385.8 0C343 0 300 0 257.2 0C214.3 0 171.7 0 128.8 0C86 0 43 0 21.5 0L0 0Z" fill="#f68961"></path><path d="M0 48L21.5 51.3C43 54.7 86 61.3 128.8 64.2C171.7 67 214.3 66 257.2 63.3C300 60.7 343 56.3 385.8 57.7C428.7 59 471.3 66 514.2 67.3C557 68.7 600 64.3 642.8 66.5C685.7 68.7 728.3 77.3 771.2 80.2C814 83 857 80 878.5 78.5L900 77L900 0L878.5 0C857 0 814 0 771.2 0C728.3 0 685.7 0 642.8 0C600 0 557 0 514.2 0C471.3 0 428.7 0 385.8 0C343 0 300 0 257.2 0C214.3 0 171.7 0 128.8 0C86 0 43 0 21.5 0L0 0Z" fill="#863a12"></path><path d="M0 48L21.5 48.8C43 49.7 86 51.3 128.8 50.2C171.7 49 214.3 45 257.2 40C300 35 343 29 385.8 30C428.7 31 471.3 39 514.2 39.7C557 40.3 600 33.7 642.8 34.3C685.7 35 728.3 43 771.2 44C814 45 857 39 878.5 36L900 33L900 0L878.5 0C857 0 814 0 771.2 0C728.3 0 685.7 0 642.8 0C600 0 557 0 514.2 0C471.3 0 428.7 0 385.8 0C343 0 300 0 257.2 0C214.3 0 171.7 0 128.8 0C86 0 43 0 21.5 0L0 0Z" fill="#0a1121"></path></svg> 