<svg id="visual" viewBox="0 0 900 450" width="900" height="450" xmlns="http://www.w3.org/2000/svg" xmlns:xlink="http://www.w3.org/1999/xlink" version="1.1"><path d="M0 282L21.5 280.3C43 278.7 86 275.3 128.8 275.7C171.7 276 214.3 280 257.2 283.3C300 286.7 343 289.3 385.8 290C428.7 290.7 471.3 289.3 514.2 286.5C557 283.7 600 279.3 642.8 277C685.7 274.7 728.3 274.3 771.2 275C814 275.7 857 277.3 878.5 278.2L900 279L900 451L878.5 451C857 451 814 451 771.2 451C728.3 451 685.7 451 642.8 451C600 451 557 451 514.2 451C471.3 451 428.7 451 385.8 451C343 451 300 451 257.2 451C214.3 451 171.7 451 128.8 451C86 451 43 451 21.5 451L0 451Z" fill="#ffc9a7"></path><path d="M0 300L21.5 300.7C43 301.3 86 302.7 128.8 304.2C171.7 305.7 214.3 307.3 257.2 309C300 310.7 343 312.3 385.8 313.7C428.7 315 471.3 316 514.2 314.2C557 312.3 600 307.7 642.8 306.5C685.7 305.3 728.3 307.7 771.2 310C814 312.3 857 314.7 878.5 315.8L900 317L900 451L878.5 451C857 451 814 451 771.2 451C728.3 451 685.7 451 642.8 451C600 451 557 451 514.2 451C471.3 451 428.7 451 385.8 451C343 451 300 451 257.2 451C214.3 451 171.7 451 128.8 451C86 451 43 451 21.5 451L0 451Z" fill="#febe6b"></path><path d="M0 335L21.5 337.2C43 339.3 86 343.7 128.8 347.3C171.7 351 214.3 354 257.2 352.7C300 351.3 343 345.7 385.8 341.5C428.7 337.3 471.3 334.7 514.2 335.5C557 336.3 600 340.7 642.8 341.7C685.7 342.7 728.3 340.3 771.2 339.7C814 339 857 340 878.5 340.5L900 341L900 451L878.5 451C857 451 814 451 771.2 451C728.3 451 685.7 451 642.8 451C600 451 557 451 514.2 451C471.3 451 428.7 451 385.8 451C343 451 300 451 257.2 451C214.3 451 171.7 451 128.8 451C86 451 43 451 21.5 451L0 451Z" fill="#f68961"></path><path d="M0 382L21.5 382.7C43 383.3 86 384.7 128.8 384.8C171.7 385 214.3 384 257.2 381C300 378 343 373 385.8 374C428.7 375 471.3 382 514.2 383.7C557 385.3 600 381.7 642.8 381.8C685.7 382 728.3 386 771.2 386.5C814 387 857 384 878.5 382.5L900 381L900 451L878.5 451C857 451 814 451 771.2 451C728.3 451 685.7 451 642.8 451C600 451 557 451 514.2 451C471.3 451 428.7 451 385.8 451C343 451 300 451 257.2 451C214.3 451 171.7 451 128.8 451C86 451 43 451 21.5 451L0 451Z" fill="#863a12"></path><path d="M0 421L21.5 419.2C43 417.3 86 413.7 128.8 413.7C171.7 413.7 214.3 417.3 257.2 416.3C300 415.3 343 409.7 385.8 408.7C428.7 407.7 471.3 411.3 514.2 414.2C557 417 600 419 642.8 417.8C685.7 416.7 728.3 412.3 771.2 410C814 407.7 857 407.3 878.5 407.2L900 407L900 451L878.5 451C857 451 814 451 771.2 451C728.3 451 685.7 451 642.8 451C600 451 557 451 514.2 451C471.3 451 428.7 451 385.8 451C343 451 300 451 257.2 451C214.3 451 171.7 451 128.8 451C86 451 43 451 21.5 451L0 451Z" fill="#0a1121"></path></svg>