<svg id="visual" viewBox="0 0 900 450" width="900" height="450" xmlns="http://www.w3.org/2000/svg" xmlns:xlink="http://www.w3.org/1999/xlink" version="1.1"><path d="M0 186L53 186L53 206L106 206L106 176L159 176L159 203L212 203L212 195L265 195L265 198L318 198L318 214L371 214L371 206L424 206L424 153L476 153L476 185L529 185L529 209L582 209L582 178L635 178L635 190L688 190L688 176L741 176L741 183L794 183L794 207L847 207L847 220L900 220L900 212L900 451L900 451L847 451L847 451L794 451L794 451L741 451L741 451L688 451L688 451L635 451L635 451L582 451L582 451L529 451L529 451L476 451L476 451L424 451L424 451L371 451L371 451L318 451L318 451L265 451L265 451L212 451L212 451L159 451L159 451L106 451L106 451L53 451L53 451L0 451Z" fill="#ffc9a7"></path><path d="M0 283L53 283L53 229L106 229L106 251L159 251L159 231L212 231L212 286L265 286L265 223L318 223L318 272L371 272L371 219L424 219L424 292L476 292L476 276L529 276L529 261L582 261L582 256L635 256L635 224L688 224L688 252L741 252L741 276L794 276L794 251L847 251L847 276L900 276L900 257L900 451L900 451L847 451L847 451L794 451L794 451L741 451L741 451L688 451L688 451L635 451L635 451L582 451L582 451L529 451L529 451L476 451L476 451L424 451L424 451L371 451L371 451L318 451L318 451L265 451L265 451L212 451L212 451L159 451L159 451L106 451L106 451L53 451L53 451L0 451Z" fill="#febe6b"></path><path d="M0 335L53 335L53 293L106 293L106 339L159 339L159 329L212 329L212 294L265 294L265 311L318 311L318 285L371 285L371 335L424 335L424 332L476 332L476 304L529 304L529 332L582 332L582 337L635 337L635 346L688 346L688 305L741 305L741 289L794 289L794 333L847 333L847 327L900 327L900 307L900 451L900 451L847 451L847 451L794 451L794 451L741 451L741 451L688 451L688 451L635 451L635 451L582 451L582 451L529 451L529 451L476 451L476 451L424 451L424 451L371 451L371 451L318 451L318 451L265 451L265 451L212 451L212 451L159 451L159 451L106 451L106 451L53 451L53 451L0 451Z" fill="#f68961"></path><path d="M0 389L53 389L53 390L106 390L106 365L159 365L159 375L212 375L212 353L265 353L265 390L318 390L318 355L371 355L371 351L424 351L424 379L476 379L476 390L529 390L529 399L582 399L582 350L635 350L635 385L688 385L688 397L741 397L741 381L794 381L794 367L847 367L847 385L900 385L900 354L900 451L900 451L847 451L847 451L794 451L794 451L741 451L741 451L688 451L688 451L635 451L635 451L582 451L582 451L529 451L529 451L476 451L476 451L424 451L424 451L371 451L371 451L318 451L318 451L265 451L265 451L212 451L212 451L159 451L159 451L106 451L106 451L53 451L53 451L0 451Z" fill="#863a12"></path></svg>