<?xml version="1.0" encoding="utf-8"?><!-- Uploaded to: SVG Repo, www.svgrepo.com, Generator: SVG Repo Mixer Tools -->
<svg width="800px" height="800px" viewBox="0 0 24 24" fill="none" xmlns="http://www.w3.org/2000/svg">
<path fill-rule="evenodd" clip-rule="evenodd" d="M10.65 3L9.93163 3.53449L9.32754 5.54812L7.47651 4.55141L6.5906 4.68143L4.68141 6.59062L4.55139 7.47652L5.5481 9.32755L3.53449 9.93163L3 10.65V13.35L3.53449 14.0684L5.54811 14.6725L4.55142 16.5235L4.68144 17.4094L6.59063 19.3186L7.47653 19.4486L9.32754 18.4519L9.93163 20.4655L10.65 21H13.35L14.0684 20.4655L14.6725 18.4519L16.5235 19.4486L17.4094 19.3185L19.3186 17.4094L19.4486 16.5235L18.4519 14.6724L20.4655 14.0684L21 13.35V10.65L20.4655 9.93163L18.4519 9.32754L19.4486 7.47654L19.3186 6.59063L17.4094 4.68144L16.5235 4.55142L14.6725 5.54812L14.0684 3.53449L13.35 3H10.65ZM10.4692 6.96284L11.208 4.5H12.792L13.5308 6.96284L13.8753 7.0946C13.9654 7.12908 14.0543 7.16597 14.142 7.2052L14.4789 7.35598L16.7433 6.13668L17.8633 7.25671L16.644 9.52111L16.7948 9.85803C16.834 9.9457 16.8709 10.0346 16.9054 10.1247L17.0372 10.4692L19.5 11.208V12.792L17.0372 13.5308L16.9054 13.8753C16.8709 13.9654 16.834 14.0543 16.7948 14.1419L16.644 14.4789L17.8633 16.7433L16.7433 17.8633L14.4789 16.644L14.142 16.7948C14.0543 16.834 13.9654 16.8709 13.8753 16.9054L13.5308 17.0372L12.792 19.5H11.208L10.4692 17.0372L10.1247 16.9054C10.0346 16.8709 9.94569 16.834 9.85803 16.7948L9.52111 16.644L7.25671 17.8633L6.13668 16.7433L7.35597 14.4789L7.2052 14.142C7.16597 14.0543 7.12908 13.9654 7.0946 13.8753L6.96284 13.5308L4.5 12.792L4.5 11.208L6.96284 10.4692L7.0946 10.1247C7.12907 10.0346 7.16596 9.94571 7.20519 9.85805L7.35596 9.52113L6.13666 7.2567L7.25668 6.13667L9.5211 7.35598L9.85803 7.2052C9.9457 7.16597 10.0346 7.12908 10.1247 7.0946L10.4692 6.96284ZM14.25 12C14.25 13.2426 13.2426 14.25 12 14.25C10.7574 14.25 9.75 13.2426 9.75 12C9.75 10.7574 10.7574 9.75 12 9.75C13.2426 9.75 14.25 10.7574 14.25 12ZM15.75 12C15.75 14.0711 14.0711 15.75 12 15.75C9.92893 15.75 8.25 14.0711 8.25 12C8.25 9.92893 9.92893 8.25 12 8.25C14.0711 8.25 15.75 9.92893 15.75 12Z" fill="#080341"/>
</svg>